<?xml version="1.0" encoding="UTF-8" standalone="no"?>
<!DOCTYPE svg PUBLIC "-//W3C//DTD SVG 1.1//EN"
 "http://www.w3.org/Graphics/SVG/1.1/DTD/svg11.dtd">
<!-- Generated by graphviz version 15.1.0 (0)
 -->
<!-- Title: systemd Pages: 1 -->
<svg width="4384pt" height="260pt"
 viewBox="0.00 0.00 4384.00 260.00" xmlns="http://www.w3.org/2000/svg" xmlns:xlink="http://www.w3.org/1999/xlink">
<g id="graph0" class="graph" transform="scale(1 1) rotate(0) translate(4 256)">
<title>systemd</title>
<polygon fill="white" stroke="none" points="-4,4 -4,-256 4380.18,-256 4380.18,4 -4,4"/>
<!-- linger&#45;users.service -->
<g id="node1" class="node">
<title>linger&#45;users.service</title>
<ellipse fill="none" stroke="black" cx="131.18" cy="-234" rx="110.13" ry="18"/>
<text xml:space="preserve" text-anchor="middle" x="131.18" y="-229.32" font-family="Times,serif" font-size="14.00">linger&#45;users.service</text>
</g>
<!-- systemd&#45;logind.service -->
<g id="node2" class="node">
<title>systemd&#45;logind.service</title>
<ellipse fill="none" stroke="black" cx="131.18" cy="-162" rx="126.44" ry="18"/>
<text xml:space="preserve" text-anchor="middle" x="131.18" y="-157.32" font-family="Times,serif" font-size="14.00">systemd&#45;logind.service</text>
</g>
<!-- linger&#45;users.service&#45;&gt;systemd&#45;logind.service -->
<g id="edge1" class="edge">
<title>linger&#45;users.service&#45;&gt;systemd&#45;logind.service</title>
<path fill="none" stroke="black" d="M131.18,-215.7C131.18,-208.41 131.18,-199.73 131.18,-191.54"/>
<polygon fill="black" stroke="black" points="134.68,-191.62 131.18,-181.62 127.68,-191.62 134.68,-191.62"/>
</g>
<!-- modprobe@drm.service -->
<g id="node15" class="node">
<title>modprobe@drm.service</title>
<ellipse fill="none" stroke="black" cx="131.18" cy="-90" rx="131.18" ry="18"/>
<text xml:space="preserve" text-anchor="middle" x="131.18" y="-85.33" font-family="Times,serif" font-size="14.00">modprobe@drm.service</text>
</g>
<!-- systemd&#45;logind.service&#45;&gt;modprobe@drm.service -->
<g id="edge9" class="edge">
<title>systemd&#45;logind.service&#45;&gt;modprobe@drm.service</title>
<path fill="none" stroke="#a8a8a8" d="M131.18,-143.7C131.18,-136.41 131.18,-127.73 131.18,-119.54"/>
<polygon fill="#a8a8a8" stroke="#a8a8a8" points="134.68,-119.62 131.18,-109.62 127.68,-119.62 134.68,-119.62"/>
</g>
<!-- nginx.service -->
<g id="node3" class="node">
<title>nginx.service</title>
<ellipse fill="none" stroke="black" cx="515.18" cy="-234" rx="78.04" ry="18"/>
<text xml:space="preserve" text-anchor="middle" x="515.18" y="-229.32" font-family="Times,serif" font-size="14.00">nginx.service</text>
</g>
<!-- acme&#45;immich.gvolpe.com.service -->
<g id="node4" class="node">
<title>acme&#45;immich.gvolpe.com.service</title>
<ellipse fill="none" stroke="black" cx="515.18" cy="-162" rx="170.11" ry="18"/>
<text xml:space="preserve" text-anchor="middle" x="515.18" y="-157.32" font-family="Times,serif" font-size="14.00">acme&#45;immich.gvolpe.com.service</text>
</g>
<!-- nginx.service&#45;&gt;acme&#45;immich.gvolpe.com.service -->
<g id="edge2" class="edge">
<title>nginx.service&#45;&gt;acme&#45;immich.gvolpe.com.service</title>
<path fill="none" stroke="#a8a8a8" d="M515.18,-215.7C515.18,-208.41 515.18,-199.73 515.18,-191.54"/>
<polygon fill="#a8a8a8" stroke="#a8a8a8" points="518.68,-191.62 515.18,-181.62 511.68,-191.62 518.68,-191.62"/>
</g>
<!-- acme&#45;order&#45;renew&#45;immich.gvolpe.com.service -->
<g id="node13" class="node">
<title>acme&#45;order&#45;renew&#45;immich.gvolpe.com.service</title>
<ellipse fill="none" stroke="black" cx="515.18" cy="-90" rx="234.82" ry="18"/>
<text xml:space="preserve" text-anchor="middle" x="515.18" y="-85.33" font-family="Times,serif" font-size="14.00">acme&#45;order&#45;renew&#45;immich.gvolpe.com.service</text>
</g>
<!-- acme&#45;immich.gvolpe.com.service&#45;&gt;acme&#45;order&#45;renew&#45;immich.gvolpe.com.service -->
<g id="edge22" class="edge">
<title>acme&#45;immich.gvolpe.com.service&#45;&gt;acme&#45;order&#45;renew&#45;immich.gvolpe.com.service</title>
<path fill="none" stroke="#a8a8a8" d="M509.26,-143.7C508.51,-136.41 508.27,-127.73 508.53,-119.54"/>
<polygon fill="#a8a8a8" stroke="#a8a8a8" points="512.02,-119.82 509.18,-109.61 505.03,-119.36 512.02,-119.82"/>
</g>
<!-- acme&#45;setup.service -->
<g id="node14" class="node">
<title>acme&#45;setup.service</title>
<ellipse fill="none" stroke="black" cx="647.18" cy="-18" rx="107.5" ry="18"/>
<text xml:space="preserve" text-anchor="middle" x="647.18" y="-13.32" font-family="Times,serif" font-size="14.00">acme&#45;setup.service</text>
</g>
<!-- acme&#45;immich.gvolpe.com.service&#45;&gt;acme&#45;setup.service -->
<g id="edge23" class="edge">
<title>acme&#45;immich.gvolpe.com.service&#45;&gt;acme&#45;setup.service</title>
<path fill="none" stroke="#a8a8a8" d="M636.12,-148.96C689.13,-140.94 742.99,-128.08 759.18,-108 769.22,-95.54 767.74,-85.52 759.18,-72 749.46,-56.65 733.96,-45.66 717.55,-37.82"/>
<polygon fill="#a8a8a8" stroke="#a8a8a8" points="719.22,-34.73 708.65,-33.94 716.42,-41.14 719.22,-34.73"/>
</g>
<!-- dhcpcd.service -->
<g id="node5" class="node">
<title>dhcpcd.service</title>
<ellipse fill="none" stroke="black" cx="804.18" cy="-234" rx="85.93" ry="18"/>
<text xml:space="preserve" text-anchor="middle" x="804.18" y="-229.32" font-family="Times,serif" font-size="14.00">dhcpcd.service</text>
</g>
<!-- resolvconf.service -->
<g id="node6" class="node">
<title>resolvconf.service</title>
<ellipse fill="none" stroke="black" cx="804.18" cy="-162" rx="101.19" ry="18"/>
<text xml:space="preserve" text-anchor="middle" x="804.18" y="-157.32" font-family="Times,serif" font-size="14.00">resolvconf.service</text>
</g>
<!-- dhcpcd.service&#45;&gt;resolvconf.service -->
<g id="edge3" class="edge">
<title>dhcpcd.service&#45;&gt;resolvconf.service</title>
<path fill="none" stroke="#a8a8a8" d="M804.18,-215.7C804.18,-208.41 804.18,-199.73 804.18,-191.54"/>
<polygon fill="#a8a8a8" stroke="#a8a8a8" points="807.68,-191.62 804.18,-181.62 800.68,-191.62 807.68,-191.62"/>
</g>
<!-- postgresql&#45;backup.service -->
<g id="node7" class="node">
<title>postgresql&#45;backup.service</title>
<ellipse fill="none" stroke="black" cx="1050.18" cy="-234" rx="142.23" ry="18"/>
<text xml:space="preserve" text-anchor="middle" x="1050.18" y="-229.32" font-family="Times,serif" font-size="14.00">postgresql&#45;backup.service</text>
</g>
<!-- postgresql.service -->
<g id="node8" class="node">
<title>postgresql.service</title>
<ellipse fill="none" stroke="black" cx="1172.18" cy="-162" rx="103.29" ry="18"/>
<text xml:space="preserve" text-anchor="middle" x="1172.18" y="-157.32" font-family="Times,serif" font-size="14.00">postgresql.service</text>
</g>
<!-- postgresql&#45;backup.service&#45;&gt;postgresql.service -->
<g id="edge4" class="edge">
<title>postgresql&#45;backup.service&#45;&gt;postgresql.service</title>
<path fill="none" stroke="black" d="M1079.71,-216.05C1095.86,-206.79 1116.07,-195.19 1133.47,-185.21"/>
<polygon fill="black" stroke="black" points="1135.09,-188.31 1142.02,-180.3 1131.61,-182.24 1135.09,-188.31"/>
</g>
<!-- emergency.service -->
<g id="node9" class="node">
<title>emergency.service</title>
<ellipse fill="none" stroke="black" cx="1751.18" cy="-162" rx="103.82" ry="18"/>
<text xml:space="preserve" text-anchor="middle" x="1751.18" y="-157.32" font-family="Times,serif" font-size="14.00">emergency.service</text>
</g>
<!-- rescue.service -->
<g id="node10" class="node">
<title>rescue.service</title>
<ellipse fill="none" stroke="black" cx="1591.18" cy="-90" rx="83.3" ry="18"/>
<text xml:space="preserve" text-anchor="middle" x="1591.18" y="-85.33" font-family="Times,serif" font-size="14.00">rescue.service</text>
</g>
<!-- emergency.service&#45;&gt;rescue.service -->
<g id="edge5" class="edge">
<title>emergency.service&#45;&gt;rescue.service</title>
<path fill="none" stroke="red" d="M1714.07,-144.76C1691.23,-134.77 1661.77,-121.88 1637.42,-111.23"/>
<polygon fill="red" stroke="red" points="1638.94,-108.07 1628.37,-107.27 1636.13,-114.49 1638.94,-108.07"/>
</g>
<!-- systemd&#45;udev&#45;trigger.service -->
<g id="node11" class="node">
<title>systemd&#45;udev&#45;trigger.service</title>
<ellipse fill="none" stroke="black" cx="2130.18" cy="-234" rx="156.96" ry="18"/>
<text xml:space="preserve" text-anchor="middle" x="2130.18" y="-229.32" font-family="Times,serif" font-size="14.00">systemd&#45;udev&#45;trigger.service</text>
</g>
<!-- systemd&#45;udevd.service -->
<g id="node12" class="node">
<title>systemd&#45;udevd.service</title>
<ellipse fill="none" stroke="black" cx="2130.18" cy="-162" rx="125.92" ry="18"/>
<text xml:space="preserve" text-anchor="middle" x="2130.18" y="-157.32" font-family="Times,serif" font-size="14.00">systemd&#45;udevd.service</text>
</g>
<!-- systemd&#45;udev&#45;trigger.service&#45;&gt;systemd&#45;udevd.service -->
<g id="edge6" class="edge">
<title>systemd&#45;udev&#45;trigger.service&#45;&gt;systemd&#45;udevd.service</title>
<path fill="none" stroke="#a8a8a8" d="M2130.18,-215.7C2130.18,-208.41 2130.18,-199.73 2130.18,-191.54"/>
<polygon fill="#a8a8a8" stroke="#a8a8a8" points="2133.68,-191.62 2130.18,-181.62 2126.68,-191.62 2133.68,-191.62"/>
</g>
<!-- systemd&#45;udev&#45;load&#45;credentials.service -->
<g id="node18" class="node">
<title>systemd&#45;udev&#45;load&#45;credentials.service</title>
<ellipse fill="none" stroke="black" cx="1965.18" cy="-90" rx="202.73" ry="18"/>
<text xml:space="preserve" text-anchor="middle" x="1965.18" y="-85.33" font-family="Times,serif" font-size="14.00">systemd&#45;udev&#45;load&#45;credentials.service</text>
</g>
<!-- systemd&#45;udevd.service&#45;&gt;systemd&#45;udev&#45;load&#45;credentials.service -->
<g id="edge11" class="edge">
<title>systemd&#45;udevd.service&#45;&gt;systemd&#45;udev&#45;load&#45;credentials.service</title>
<path fill="none" stroke="#a8a8a8" d="M2091.07,-144.41C2068.58,-134.87 2040.06,-122.77 2015.86,-112.5"/>
<polygon fill="#a8a8a8" stroke="#a8a8a8" points="2017.4,-109.35 2006.83,-108.67 2014.67,-115.8 2017.4,-109.35"/>
</g>
<!-- initrd&#45;switch&#45;root.service -->
<g id="node19" class="node">
<title>initrd&#45;switch&#45;root.service</title>
<ellipse fill="none" stroke="black" cx="2323.18" cy="-90" rx="137.49" ry="18"/>
<text xml:space="preserve" text-anchor="middle" x="2323.18" y="-85.33" font-family="Times,serif" font-size="14.00">initrd&#45;switch&#45;root.service</text>
</g>
<!-- systemd&#45;udevd.service&#45;&gt;initrd&#45;switch&#45;root.service -->
<g id="edge12" class="edge">
<title>systemd&#45;udevd.service&#45;&gt;initrd&#45;switch&#45;root.service</title>
<path fill="none" stroke="red" d="M2174.94,-144.76C2202.51,-134.76 2238.08,-121.86 2267.47,-111.21"/>
<polygon fill="red" stroke="red" points="2268.36,-114.61 2276.56,-107.91 2265.97,-108.03 2268.36,-114.61"/>
</g>
<!-- acme&#45;order&#45;renew&#45;immich.gvolpe.com.service&#45;&gt;acme&#45;immich.gvolpe.com.service -->
<g id="edge7" class="edge">
<title>acme&#45;order&#45;renew&#45;immich.gvolpe.com.service&#45;&gt;acme&#45;immich.gvolpe.com.service</title>
<path fill="none" stroke="#a8a8a8" d="M521.07,-108.1C521.83,-115.37 522.09,-124.04 521.83,-132.24"/>
<polygon fill="#a8a8a8" stroke="#a8a8a8" points="518.34,-131.98 521.19,-142.19 525.33,-132.43 518.34,-131.98"/>
</g>
<!-- acme&#45;order&#45;renew&#45;immich.gvolpe.com.service&#45;&gt;acme&#45;setup.service -->
<g id="edge8" class="edge">
<title>acme&#45;order&#45;renew&#45;immich.gvolpe.com.service&#45;&gt;acme&#45;setup.service</title>
<path fill="none" stroke="#a8a8a8" d="M547.81,-71.7C565.33,-62.41 587.11,-50.86 605.81,-40.94"/>
<polygon fill="#a8a8a8" stroke="#a8a8a8" points="607.3,-44.11 614.49,-36.33 604.02,-37.92 607.3,-44.11"/>
</g>
<!-- sshd.service -->
<g id="node16" class="node">
<title>sshd.service</title>
<ellipse fill="none" stroke="black" cx="2438.18" cy="-234" rx="73.3" ry="18"/>
<text xml:space="preserve" text-anchor="middle" x="2438.18" y="-229.32" font-family="Times,serif" font-size="14.00">sshd.service</text>
</g>
<!-- sshd&#45;keygen.service -->
<g id="node17" class="node">
<title>sshd&#45;keygen.service</title>
<ellipse fill="none" stroke="black" cx="2438.18" cy="-162" rx="112.24" ry="18"/>
<text xml:space="preserve" text-anchor="middle" x="2438.18" y="-157.32" font-family="Times,serif" font-size="14.00">sshd&#45;keygen.service</text>
</g>
<!-- sshd.service&#45;&gt;sshd&#45;keygen.service -->
<g id="edge10" class="edge">
<title>sshd.service&#45;&gt;sshd&#45;keygen.service</title>
<path fill="none" stroke="#a8a8a8" d="M2438.18,-215.7C2438.18,-208.41 2438.18,-199.73 2438.18,-191.54"/>
<polygon fill="#a8a8a8" stroke="#a8a8a8" points="2441.68,-191.62 2438.18,-181.62 2434.68,-191.62 2441.68,-191.62"/>
</g>
<!-- postgresql&#45;setup.service -->
<g id="node20" class="node">
<title>postgresql&#45;setup.service</title>
<ellipse fill="none" stroke="black" cx="1345.18" cy="-234" rx="134.33" ry="18"/>
<text xml:space="preserve" text-anchor="middle" x="1345.18" y="-229.32" font-family="Times,serif" font-size="14.00">postgresql&#45;setup.service</text>
</g>
<!-- postgresql&#45;setup.service&#45;&gt;postgresql.service -->
<g id="edge13" class="edge">
<title>postgresql&#45;setup.service&#45;&gt;postgresql.service</title>
<path fill="none" stroke="black" d="M1304.18,-216.41C1279.59,-206.46 1248.14,-193.74 1222.11,-183.2"/>
<polygon fill="black" stroke="black" points="1223.68,-180.06 1213.09,-179.56 1221.05,-186.55 1223.68,-180.06"/>
</g>
<!-- immich&#45;server.service -->
<g id="node21" class="node">
<title>immich&#45;server.service</title>
<ellipse fill="none" stroke="black" cx="2662.18" cy="-234" rx="121.18" ry="18"/>
<text xml:space="preserve" text-anchor="middle" x="2662.18" y="-229.32" font-family="Times,serif" font-size="14.00">immich&#45;server.service</text>
</g>
<!-- s3ql&#45;mount.service -->
<g id="node22" class="node">
<title>s3ql&#45;mount.service</title>
<ellipse fill="none" stroke="black" cx="2701.18" cy="-162" rx="106.45" ry="18"/>
<text xml:space="preserve" text-anchor="middle" x="2701.18" y="-157.32" font-family="Times,serif" font-size="14.00">s3ql&#45;mount.service</text>
</g>
<!-- immich&#45;server.service&#45;&gt;s3ql&#45;mount.service -->
<g id="edge14" class="edge">
<title>immich&#45;server.service&#45;&gt;s3ql&#45;mount.service</title>
<path fill="none" stroke="black" d="M2671.82,-215.7C2676.11,-207.98 2681.28,-198.71 2686.07,-190.11"/>
<polygon fill="black" stroke="black" points="2689.1,-191.87 2690.91,-181.43 2682.99,-188.46 2689.1,-191.87"/>
</g>
<!-- s3ql&#45;fs.service -->
<g id="node23" class="node">
<title>s3ql&#45;fs.service</title>
<ellipse fill="none" stroke="black" cx="2701.18" cy="-90" rx="83.3" ry="18"/>
<text xml:space="preserve" text-anchor="middle" x="2701.18" y="-85.33" font-family="Times,serif" font-size="14.00">s3ql&#45;fs.service</text>
</g>
<!-- s3ql&#45;mount.service&#45;&gt;s3ql&#45;fs.service -->
<g id="edge15" class="edge">
<title>s3ql&#45;mount.service&#45;&gt;s3ql&#45;fs.service</title>
<path fill="none" stroke="black" d="M2701.18,-143.7C2701.18,-136.41 2701.18,-127.73 2701.18,-119.54"/>
<polygon fill="black" stroke="black" points="2704.68,-119.62 2701.18,-109.62 2697.68,-119.62 2704.68,-119.62"/>
</g>
<!-- s3ql&#45;auth.service -->
<g id="node35" class="node">
<title>s3ql&#45;auth.service</title>
<ellipse fill="none" stroke="black" cx="2799.18" cy="-18" rx="96.98" ry="18"/>
<text xml:space="preserve" text-anchor="middle" x="2799.18" y="-13.32" font-family="Times,serif" font-size="14.00">s3ql&#45;auth.service</text>
</g>
<!-- s3ql&#45;fs.service&#45;&gt;s3ql&#45;auth.service -->
<g id="edge25" class="edge">
<title>s3ql&#45;fs.service&#45;&gt;s3ql&#45;auth.service</title>
<path fill="none" stroke="black" d="M2724.4,-72.41C2737,-63.41 2752.78,-52.14 2766.59,-42.27"/>
<polygon fill="black" stroke="black" points="2768.44,-45.25 2774.55,-36.59 2764.38,-39.56 2768.44,-45.25"/>
</g>
<!-- s3&#45;replica.service -->
<g id="node24" class="node">
<title>s3&#45;replica.service</title>
<ellipse fill="none" stroke="black" cx="3272.18" cy="-234" rx="99.08" ry="18"/>
<text xml:space="preserve" text-anchor="middle" x="3272.18" y="-229.32" font-family="Times,serif" font-size="14.00">s3&#45;replica.service</text>
</g>
<!-- s3&#45;aliases.service -->
<g id="node25" class="node">
<title>s3&#45;aliases.service</title>
<ellipse fill="none" stroke="black" cx="3272.18" cy="-162" rx="99.08" ry="18"/>
<text xml:space="preserve" text-anchor="middle" x="3272.18" y="-157.32" font-family="Times,serif" font-size="14.00">s3&#45;aliases.service</text>
</g>
<!-- s3&#45;replica.service&#45;&gt;s3&#45;aliases.service -->
<g id="edge16" class="edge">
<title>s3&#45;replica.service&#45;&gt;s3&#45;aliases.service</title>
<path fill="none" stroke="black" d="M3272.18,-215.7C3272.18,-208.41 3272.18,-199.73 3272.18,-191.54"/>
<polygon fill="black" stroke="black" points="3275.68,-191.62 3272.18,-181.62 3268.68,-191.62 3275.68,-191.62"/>
</g>
<!-- systemd&#45;journal&#45;flush.service -->
<g id="node26" class="node">
<title>systemd&#45;journal&#45;flush.service</title>
<ellipse fill="none" stroke="black" cx="3547.18" cy="-234" rx="158.01" ry="18"/>
<text xml:space="preserve" text-anchor="middle" x="3547.18" y="-229.32" font-family="Times,serif" font-size="14.00">systemd&#45;journal&#45;flush.service</text>
</g>
<!-- systemd&#45;journald.service -->
<g id="node27" class="node">
<title>systemd&#45;journald.service</title>
<ellipse fill="none" stroke="black" cx="3547.18" cy="-162" rx="136.96" ry="18"/>
<text xml:space="preserve" text-anchor="middle" x="3547.18" y="-157.32" font-family="Times,serif" font-size="14.00">systemd&#45;journald.service</text>
</g>
<!-- systemd&#45;journal&#45;flush.service&#45;&gt;systemd&#45;journald.service -->
<g id="edge17" class="edge">
<title>systemd&#45;journal&#45;flush.service&#45;&gt;systemd&#45;journald.service</title>
<path fill="none" stroke="#a8a8a8" d="M3547.18,-215.7C3547.18,-208.41 3547.18,-199.73 3547.18,-191.54"/>
<polygon fill="#a8a8a8" stroke="#a8a8a8" points="3550.68,-191.62 3547.18,-181.62 3543.68,-191.62 3550.68,-191.62"/>
</g>
<!-- getty@tty1.service -->
<g id="node28" class="node">
<title>getty@tty1.service</title>
<ellipse fill="none" stroke="black" cx="1522.18" cy="-162" rx="106.98" ry="18"/>
<text xml:space="preserve" text-anchor="middle" x="1522.18" y="-157.32" font-family="Times,serif" font-size="14.00">getty@tty1.service</text>
</g>
<!-- getty@tty1.service&#45;&gt;rescue.service -->
<g id="edge18" class="edge">
<title>getty@tty1.service&#45;&gt;rescue.service</title>
<path fill="none" stroke="red" d="M1538.88,-144.05C1547.19,-135.63 1557.39,-125.28 1566.57,-115.97"/>
<polygon fill="red" stroke="red" points="1569.04,-118.45 1573.57,-108.87 1564.05,-113.53 1569.04,-118.45"/>
</g>
<!-- systemd&#45;pstore.service -->
<g id="node29" class="node">
<title>systemd&#45;pstore.service</title>
<ellipse fill="none" stroke="black" cx="3862.18" cy="-234" rx="127.49" ry="18"/>
<text xml:space="preserve" text-anchor="middle" x="3862.18" y="-229.32" font-family="Times,serif" font-size="14.00">systemd&#45;pstore.service</text>
</g>
<!-- modprobe@efi_pstore.service -->
<g id="node30" class="node">
<title>modprobe@efi_pstore.service</title>
<ellipse fill="none" stroke="black" cx="3862.18" cy="-162" rx="159.59" ry="18"/>
<text xml:space="preserve" text-anchor="middle" x="3862.18" y="-157.32" font-family="Times,serif" font-size="14.00">modprobe@efi_pstore.service</text>
</g>
<!-- systemd&#45;pstore.service&#45;&gt;modprobe@efi_pstore.service -->
<g id="edge19" class="edge">
<title>systemd&#45;pstore.service&#45;&gt;modprobe@efi_pstore.service</title>
<path fill="none" stroke="#a8a8a8" d="M3862.18,-215.7C3862.18,-208.41 3862.18,-199.73 3862.18,-191.54"/>
<polygon fill="#a8a8a8" stroke="#a8a8a8" points="3865.68,-191.62 3862.18,-181.62 3858.68,-191.62 3865.68,-191.62"/>
</g>
<!-- systemd&#45;ask&#45;password&#45;console.service -->
<g id="node31" class="node">
<title>systemd&#45;ask&#45;password&#45;console.service</title>
<ellipse fill="none" stroke="black" cx="1751.18" cy="-234" rx="203.78" ry="18"/>
<text xml:space="preserve" text-anchor="middle" x="1751.18" y="-229.32" font-family="Times,serif" font-size="14.00">systemd&#45;ask&#45;password&#45;console.service</text>
</g>
<!-- systemd&#45;ask&#45;password&#45;console.service&#45;&gt;emergency.service -->
<g id="edge20" class="edge">
<title>systemd&#45;ask&#45;password&#45;console.service&#45;&gt;emergency.service</title>
<path fill="none" stroke="red" d="M1751.18,-215.7C1751.18,-208.41 1751.18,-199.73 1751.18,-191.54"/>
<polygon fill="red" stroke="red" points="1754.68,-191.62 1751.18,-181.62 1747.68,-191.62 1754.68,-191.62"/>
</g>
<!-- user@1000.service -->
<g id="node32" class="node">
<title>user@1000.service</title>
<ellipse fill="none" stroke="black" cx="4208.18" cy="-234" rx="107.5" ry="18"/>
<text xml:space="preserve" text-anchor="middle" x="4208.18" y="-229.32" font-family="Times,serif" font-size="14.00">user@1000.service</text>
</g>
<!-- user&#45;runtime&#45;dir@1000.service -->
<g id="node33" class="node">
<title>user&#45;runtime&#45;dir@1000.service</title>
<ellipse fill="none" stroke="black" cx="4208.18" cy="-162" rx="168" ry="18"/>
<text xml:space="preserve" text-anchor="middle" x="4208.18" y="-157.32" font-family="Times,serif" font-size="14.00">user&#45;runtime&#45;dir@1000.service</text>
</g>
<!-- user@1000.service&#45;&gt;user&#45;runtime&#45;dir@1000.service -->
<g id="edge21" class="edge">
<title>user@1000.service&#45;&gt;user&#45;runtime&#45;dir@1000.service</title>
<path fill="none" stroke="gold" d="M4208.18,-215.7C4208.18,-208.41 4208.18,-199.73 4208.18,-191.54"/>
<polygon fill="gold" stroke="gold" points="4211.68,-191.62 4208.18,-181.62 4204.68,-191.62 4211.68,-191.62"/>
</g>
<!-- s3ql&#45;fsck.service -->
<g id="node34" class="node">
<title>s3ql&#45;fsck.service</title>
<ellipse fill="none" stroke="black" cx="2897.18" cy="-90" rx="94.35" ry="18"/>
<text xml:space="preserve" text-anchor="middle" x="2897.18" y="-85.33" font-family="Times,serif" font-size="14.00">s3ql&#45;fsck.service</text>
</g>
<!-- s3ql&#45;fsck.service&#45;&gt;s3ql&#45;auth.service -->
<g id="edge24" class="edge">
<title>s3ql&#45;fsck.service&#45;&gt;s3ql&#45;auth.service</title>
<path fill="none" stroke="black" d="M2873.95,-72.41C2861.35,-63.41 2845.57,-52.14 2831.76,-42.27"/>
<polygon fill="black" stroke="black" points="2833.98,-39.56 2823.81,-36.59 2829.91,-45.25 2833.98,-39.56"/>
</g>
<!-- immich&#45;machine&#45;learning.service -->
<g id="node36" class="node">
<title>immich&#45;machine&#45;learning.service</title>
<ellipse fill="none" stroke="black" cx="2978.18" cy="-234" rx="176.95" ry="18"/>
<text xml:space="preserve" text-anchor="middle" x="2978.18" y="-229.32" font-family="Times,serif" font-size="14.00">immich&#45;machine&#45;learning.service</text>
</g>
<!-- immich&#45;machine&#45;learning.service&#45;&gt;s3ql&#45;mount.service -->
<g id="edge26" class="edge">
<title>immich&#45;machine&#45;learning.service&#45;&gt;s3ql&#45;mount.service</title>
<path fill="none" stroke="black" d="M2913.93,-216.76C2870.61,-205.82 2813.54,-191.4 2769.41,-180.24"/>
<polygon fill="black" stroke="black" points="2770.51,-176.91 2759.95,-177.85 2768.79,-183.7 2770.51,-176.91"/>
</g>
</g>
</svg>
